# xmcd CD database file
#
# Track frame offsets:
#	150
#	5680
#	29015
#	49525
#	74227
#	89570
#	92657
#	115627
#	139297
#	163032
#	183820
#	200380
#	215700
#
# Disc length: 3296 seconds
#
# Revision: 0
# Processed by: cddbd v1.5.2PL0 Copyright (c) Steve Scherf et al.
# Submitted via: CDex 1.51
#
DISCID=be0cde0d
DTITLE=Richie Barshay - Homework
DYEAR=2007
DGENRE=Jazz
TTITLE0=Clouds_Intro
TTITLE1=Homework
TTITLE2=Peacock
TTITLE3=Return Voyage
TTITLE4=Trinkle Tinkle
TTITLE5=Rucutucupla/Interlude
TTITLE6=Clouds
TTITLE7=The Last Gasp
TTITLE8=no u don't
TTITLE9=Sim Shalom_Prayer for Peace
TTITLE10=Rucutucupla
TTITLE11=Exhale
TTITLE12=Live
EXTD=YEAR: 2007
EXTT0=
EXTT1=
EXTT2=
EXTT3=
EXTT4=
EXTT5=
EXTT6=
EXTT7=
EXTT8=
EXTT9=
EXTT10=
EXTT11=
EXTT12=
PLAYORDER=
